<svg width="17" height="15" viewBox="0 0 17 15" fill="none" xmlns="http://www.w3.org/2000/svg">
<g clip-path="url(#clip0_293_7805)">
<path d="M4.43071 0.46875C4.43071 0.34443 4.37869 0.225201 4.28609 0.137294C4.19348 0.049386 4.06789 0 3.93693 0C3.80597 0 3.68038 0.049386 3.58778 0.137294C3.49517 0.225201 3.44315 0.34443 3.44315 0.46875V0.9375H2.45559C1.93176 0.9375 1.42938 1.13504 1.05897 1.48667C0.688561 1.83831 0.480469 2.31522 0.480469 2.8125L0.480469 3.75H16.2814V2.8125C16.2814 2.31522 16.0733 1.83831 15.7029 1.48667C15.3325 1.13504 14.8302 0.9375 14.3063 0.9375H13.3188V0.46875C13.3188 0.34443 13.2667 0.225201 13.1741 0.137294C13.0815 0.049386 12.9559 0 12.825 0C12.694 0 12.5684 0.049386 12.4758 0.137294C12.3832 0.225201 12.3312 0.34443 12.3312 0.46875V0.9375H4.43071V0.46875ZM16.2814 13.125V4.6875H0.480469V13.125C0.480469 13.6223 0.688561 14.0992 1.05897 14.4508C1.42938 14.8025 1.93176 15 2.45559 15H14.3063C14.8302 15 15.3325 14.8025 15.7029 14.4508C16.0733 14.0992 16.2814 13.6223 16.2814 13.125ZM9.8623 6.5625H10.8499C10.9808 6.5625 11.1064 6.61189 11.199 6.69979C11.2916 6.7877 11.3436 6.90693 11.3436 7.03125V7.96875C11.3436 8.09307 11.2916 8.2123 11.199 8.30021C11.1064 8.38811 10.9808 8.4375 10.8499 8.4375H9.8623C9.73134 8.4375 9.60574 8.38811 9.51314 8.30021C9.42054 8.2123 9.36851 8.09307 9.36851 7.96875V7.03125C9.36851 6.90693 9.42054 6.7877 9.51314 6.69979C9.60574 6.61189 9.73134 6.5625 9.8623 6.5625ZM12.825 6.5625H13.8125C13.9435 6.5625 14.0691 6.61189 14.1617 6.69979C14.2543 6.7877 14.3063 6.90693 14.3063 7.03125V7.96875C14.3063 8.09307 14.2543 8.2123 14.1617 8.30021C14.0691 8.38811 13.9435 8.4375 13.8125 8.4375H12.825C12.694 8.4375 12.5684 8.38811 12.4758 8.30021C12.3832 8.2123 12.3312 8.09307 12.3312 7.96875V7.03125C12.3312 6.90693 12.3832 6.7877 12.4758 6.69979C12.5684 6.61189 12.694 6.5625 12.825 6.5625ZM2.45559 9.84375C2.45559 9.71943 2.50761 9.6002 2.60022 9.51229C2.69282 9.42439 2.81841 9.375 2.94937 9.375H3.93693C4.06789 9.375 4.19348 9.42439 4.28609 9.51229C4.37869 9.6002 4.43071 9.71943 4.43071 9.84375V10.7812C4.43071 10.9056 4.37869 11.0248 4.28609 11.1127C4.19348 11.2006 4.06789 11.25 3.93693 11.25H2.94937C2.81841 11.25 2.69282 11.2006 2.60022 11.1127C2.50761 11.0248 2.45559 10.9056 2.45559 10.7812V9.84375ZM5.91205 9.375H6.89961C7.03057 9.375 7.15617 9.42439 7.24877 9.51229C7.34137 9.6002 7.39339 9.71943 7.39339 9.84375V10.7812C7.39339 10.9056 7.34137 11.0248 7.24877 11.1127C7.15617 11.2006 7.03057 11.25 6.89961 11.25H5.91205C5.78109 11.25 5.6555 11.2006 5.5629 11.1127C5.4703 11.0248 5.41827 10.9056 5.41827 10.7812V9.84375C5.41827 9.71943 5.4703 9.6002 5.5629 9.51229C5.6555 9.42439 5.78109 9.375 5.91205 9.375V9.375Z" fill="#0B7077"/>
</g>
<defs>
<clipPath id="clip0_293_7805">
<rect width="15.801" height="15" fill="white" transform="translate(0.480469)"/>
</clipPath>
</defs>
</svg>
