<svg width="17" height="15" viewBox="0 0 17 15" fill="none" xmlns="http://www.w3.org/2000/svg">
<g clip-path="url(#clip0_293_7800)">
<path d="M16.2814 7.5C16.2814 9.48912 15.4491 11.3968 13.9674 12.8033C12.4858 14.2098 10.4763 15 8.38095 15C6.28562 15 4.2761 14.2098 2.79447 12.8033C1.31284 11.3968 0.480469 9.48912 0.480469 7.5C0.480469 5.51088 1.31284 3.60322 2.79447 2.1967C4.2761 0.790176 6.28562 0 8.38095 0C10.4763 0 12.4858 0.790176 13.9674 2.1967C15.4491 3.60322 16.2814 5.51088 16.2814 7.5V7.5ZM8.38095 3.28125C8.38095 3.15693 8.32893 3.0377 8.23633 2.94979C8.14373 2.86189 8.01813 2.8125 7.88717 2.8125C7.75622 2.8125 7.63062 2.86189 7.53802 2.94979C7.44542 3.0377 7.39339 3.15693 7.39339 3.28125V8.4375C7.39342 8.52012 7.41645 8.60127 7.46016 8.67273C7.50386 8.74418 7.56668 8.80339 7.64226 8.84438L11.0987 10.7194C11.2122 10.7776 11.3451 10.7913 11.469 10.7577C11.593 10.7241 11.6982 10.6458 11.7622 10.5396C11.8262 10.4333 11.8438 10.3075 11.8114 10.189C11.7789 10.0706 11.699 9.96885 11.5886 9.90562L8.38095 8.16563V3.28125Z" fill="#FD661F"/>
</g>
<defs>
<clipPath id="clip0_293_7800">
<rect width="15.801" height="15" fill="white" transform="translate(0.480469)"/>
</clipPath>
</defs>
</svg>
