<svg width="55" height="68" viewBox="0 0 55 68" fill="none" xmlns="http://www.w3.org/2000/svg">
<path d="M14.043 53.3691C14.043 52.9264 13.9844 52.4642 13.8672 51.9824C13.75 51.4941 13.584 51.0189 13.3691 50.5566C13.1608 50.0879 12.9069 49.6452 12.6074 49.2285C12.3145 48.8053 11.9889 48.4375 11.6309 48.125C11.2793 47.806 10.9017 47.5553 10.498 47.373C10.0944 47.1842 9.68099 47.0898 9.25781 47.0898C8.6849 47.0898 8.16732 47.1745 7.70508 47.3438C7.24284 47.513 6.82943 47.7441 6.46484 48.0371C6.10677 48.3236 5.79427 48.6654 5.52734 49.0625C5.26042 49.4596 5.03906 49.8861 4.86328 50.3418C4.69401 50.791 4.56706 51.263 4.48242 51.7578C4.39779 52.2461 4.35547 52.7311 4.35547 53.2129C4.35547 53.7402 4.38477 54.2676 4.44336 54.7949C4.50846 55.3223 4.61263 55.8301 4.75586 56.3184C4.9056 56.8001 5.0944 57.2526 5.32227 57.6758C5.55664 58.0924 5.8431 58.457 6.18164 58.7695C6.52018 59.0755 6.91406 59.3164 7.36328 59.4922C7.81901 59.668 8.33659 59.7559 8.91602 59.7559C9.37826 59.7559 9.82422 59.6647 10.2539 59.4824C10.6901 59.3001 11.097 59.056 11.4746 58.75C11.8587 58.4375 12.207 58.0729 12.5195 57.6562C12.8385 57.2331 13.1087 56.7871 13.3301 56.3184C13.5579 55.8431 13.7337 55.3548 13.8574 54.8535C13.9811 54.3457 14.043 53.8509 14.043 53.3691ZM15.0586 53.3691C15.0586 54.0527 14.9707 54.7135 14.7949 55.3516C14.6257 55.9831 14.3848 56.5788 14.0723 57.1387C13.7663 57.6986 13.3952 58.2096 12.959 58.6719C12.5228 59.1341 12.041 59.5312 11.5137 59.8633C10.9928 60.1953 10.4329 60.4525 9.83398 60.6348C9.23503 60.8171 8.61654 60.9082 7.97852 60.9082C7.33398 60.9082 6.70898 60.8171 6.10352 60.6348C5.50456 60.459 4.94466 60.2083 4.42383 59.8828C3.90299 59.5508 3.42448 59.1569 2.98828 58.7012C2.55859 58.2389 2.19076 57.7311 1.88477 57.1777C1.57878 56.6178 1.34115 56.0156 1.17188 55.3711C1.0026 54.7266 0.917969 54.0592 0.917969 53.3691C0.917969 52.679 1.0026 52.0117 1.17188 51.3672C1.34115 50.7227 1.57878 50.1237 1.88477 49.5703C2.19076 49.0104 2.55859 48.5026 2.98828 48.0469C3.42448 47.5846 3.90299 47.1908 4.42383 46.8652C4.94466 46.5332 5.50456 46.2793 6.10352 46.1035C6.70898 45.9212 7.33398 45.8301 7.97852 45.8301C8.66211 45.8301 9.3099 45.9277 9.92188 46.123C10.5404 46.3184 11.11 46.5885 11.6309 46.9336C12.1582 47.2786 12.6335 47.6888 13.0566 48.1641C13.4798 48.6393 13.8379 49.1569 14.1309 49.7168C14.4303 50.2767 14.6582 50.8659 14.8145 51.4844C14.9772 52.1029 15.0586 52.7311 15.0586 53.3691ZM26.875 48.9355V48.9551C26.875 49.0918 26.8229 49.209 26.7188 49.3066C26.6211 49.4043 26.5007 49.4531 26.3574 49.4531C26.2142 49.4531 26.0938 49.4043 25.9961 49.3066C25.9049 49.209 25.8529 49.0918 25.8398 48.9551C25.8203 48.6947 25.7682 48.431 25.6836 48.1641C25.6055 47.8971 25.4915 47.6562 25.3418 47.4414C25.1921 47.2266 25.0098 47.0508 24.7949 46.9141C24.5801 46.7773 24.3262 46.709 24.0332 46.709C23.7272 46.709 23.4635 46.7741 23.2422 46.9043C23.0273 47.0345 22.8451 47.207 22.6953 47.4219C22.5456 47.6367 22.4251 47.8809 22.334 48.1543C22.2428 48.4212 22.1712 48.6979 22.1191 48.9844C22.0671 49.2708 22.0312 49.5508 22.0117 49.8242C21.9987 50.0911 21.9922 50.3288 21.9922 50.5371V50.5957C22.2656 50.5827 22.5391 50.5762 22.8125 50.5762C23.0859 50.5697 23.3594 50.5566 23.6328 50.5371H23.6523C23.7956 50.5371 23.916 50.5859 24.0137 50.6836C24.1113 50.7747 24.1667 50.8919 24.1797 51.0352C24.1797 51.1849 24.1309 51.3086 24.0332 51.4062C23.9355 51.5039 23.8184 51.5527 23.6816 51.5527C23.1152 51.5918 22.5521 51.6113 21.9922 51.6113V59.0918C22.2591 59.1243 22.5228 59.1602 22.7832 59.1992C23.0501 59.2383 23.3203 59.2839 23.5938 59.3359C23.7174 59.3555 23.8151 59.4141 23.8867 59.5117C23.9583 59.6029 23.9941 59.7103 23.9941 59.834C23.9941 60.0033 23.9388 60.1335 23.8281 60.2246C23.7174 60.3092 23.6068 60.3516 23.4961 60.3516C23.4766 60.3516 23.4603 60.3483 23.4473 60.3418C23.4342 60.3353 23.418 60.332 23.3984 60.332C22.8841 60.2344 22.3698 60.1595 21.8555 60.1074C21.3411 60.0553 20.8203 60.0293 20.293 60.0293C19.7852 60.0293 19.2773 60.0553 18.7695 60.1074C18.2617 60.1595 17.7507 60.2344 17.2363 60.332C17.2168 60.332 17.1973 60.3353 17.1777 60.3418C17.1647 60.3483 17.1517 60.3516 17.1387 60.3516C16.9889 60.3516 16.8652 60.2995 16.7676 60.1953C16.6699 60.0846 16.6211 59.9642 16.6211 59.834C16.6211 59.7103 16.6569 59.6029 16.7285 59.5117C16.8066 59.4141 16.9108 59.3555 17.041 59.3359C17.2884 59.2839 17.5358 59.2383 17.7832 59.1992C18.0371 59.1602 18.2943 59.1309 18.5547 59.1113V51.6113C18.0078 51.6113 17.4414 51.5918 16.8555 51.5527C16.7253 51.5527 16.6113 51.5039 16.5137 51.4062C16.4225 51.3086 16.377 51.1914 16.377 51.0547C16.377 50.9115 16.429 50.791 16.5332 50.6934C16.6374 50.5892 16.7578 50.5371 16.8945 50.5371H16.9141C17.1875 50.5566 17.4609 50.5697 17.7344 50.5762C18.0078 50.5762 18.2812 50.5827 18.5547 50.5957V50.2344C18.5547 49.5182 18.6556 48.8607 18.8574 48.2617C19.0658 47.6628 19.362 47.1484 19.7461 46.7188C20.1302 46.2891 20.599 45.9538 21.1523 45.7129C21.7057 45.472 22.334 45.3516 23.0371 45.3516C23.6426 45.3516 24.1862 45.4557 24.668 45.6641C25.1497 45.8659 25.5566 46.1361 25.8887 46.4746C26.2207 46.8132 26.4714 47.1973 26.6406 47.627C26.8099 48.0501 26.888 48.4863 26.875 48.9355ZM34.873 55.4883C34.873 55.1693 34.8372 54.847 34.7656 54.5215C34.694 54.196 34.5898 53.8802 34.4531 53.5742C34.3164 53.2682 34.1504 52.9818 33.9551 52.7148C33.7598 52.4479 33.5384 52.2168 33.291 52.0215C33.0501 51.8197 32.7832 51.6634 32.4902 51.5527C32.2038 51.4355 31.8978 51.377 31.5723 51.377C31.2077 51.377 30.8887 51.4388 30.6152 51.5625C30.3483 51.6797 30.1139 51.8424 29.9121 52.0508C29.7103 52.2526 29.5443 52.487 29.4141 52.7539C29.2839 53.0208 29.1797 53.304 29.1016 53.6035C29.0234 53.903 28.9681 54.2057 28.9355 54.5117C28.903 54.8177 28.8867 55.1107 28.8867 55.3906C28.8867 55.6771 28.8997 55.9831 28.9258 56.3086C28.9518 56.6276 28.9974 56.9466 29.0625 57.2656C29.1276 57.5781 29.2155 57.8809 29.3262 58.1738C29.4368 58.4668 29.5801 58.724 29.7559 58.9453C29.9316 59.1667 30.1432 59.3424 30.3906 59.4727C30.6445 59.6029 30.944 59.668 31.2891 59.668C31.8555 59.668 32.36 59.5508 32.8027 59.3164C33.252 59.0755 33.6296 58.7598 33.9355 58.3691C34.2415 57.9785 34.4727 57.5326 34.6289 57.0312C34.7917 56.5299 34.873 56.0156 34.873 55.4883ZM35.8887 55.4883C35.8887 56.2695 35.7487 56.9857 35.4688 57.6367C35.1888 58.2878 34.8112 58.8477 34.3359 59.3164C33.8607 59.7786 33.304 60.14 32.666 60.4004C32.0345 60.6608 31.3672 60.791 30.6641 60.791C29.8698 60.791 29.1504 60.6641 28.5059 60.4102C27.8678 60.1628 27.321 59.8079 26.8652 59.3457C26.4095 58.8835 26.0579 58.3268 25.8105 57.6758C25.5697 57.0247 25.4492 56.2956 25.4492 55.4883C25.4492 54.7201 25.5827 54.0104 25.8496 53.3594C26.1165 52.7083 26.4844 52.1484 26.9531 51.6797C27.4219 51.2044 27.972 50.8366 28.6035 50.5762C29.2415 50.3092 29.9284 50.1758 30.6641 50.1758C31.4323 50.1758 32.1354 50.319 32.7734 50.6055C33.418 50.8854 33.9714 51.2695 34.4336 51.7578C34.8958 52.2396 35.2539 52.8027 35.5078 53.4473C35.7617 54.0918 35.8887 54.7721 35.8887 55.4883ZM46.6992 60.4297C46.3086 60.4297 45.9473 60.3678 45.6152 60.2441C45.2897 60.1139 44.987 59.9447 44.707 59.7363C44.4336 59.5215 44.1829 59.2708 43.9551 58.9844C43.7272 58.6979 43.5221 58.3952 43.3398 58.0762C43.1641 57.7572 43.0078 57.4316 42.8711 57.0996C42.7409 56.7611 42.6302 56.4323 42.5391 56.1133C42.4479 56.1328 42.36 56.1491 42.2754 56.1621C42.1973 56.1686 42.1191 56.1784 42.041 56.1914V59.375C42.2103 59.3945 42.373 59.4141 42.5293 59.4336C42.6921 59.4531 42.8483 59.4727 42.998 59.4922C43.1217 59.5117 43.2227 59.5703 43.3008 59.668C43.3789 59.7656 43.418 59.873 43.418 59.9902C43.418 60.153 43.3626 60.2799 43.252 60.3711C43.1413 60.4622 43.0306 60.5078 42.9199 60.5078H42.8418C42.4316 60.4492 41.9987 60.3939 41.543 60.3418C41.0938 60.2962 40.6055 60.2734 40.0781 60.2734C39.694 60.2734 39.2969 60.2897 38.8867 60.3223C38.4766 60.3548 38.0469 60.4167 37.5977 60.5078H37.5C37.3503 60.5078 37.2266 60.4525 37.1289 60.3418C37.0312 60.2376 36.9824 60.1204 36.9824 59.9902C36.9824 59.873 37.0215 59.7689 37.0996 59.6777C37.1777 59.5866 37.2786 59.5247 37.4023 59.4922C37.793 59.4141 38.1868 59.3555 38.584 59.3164V47.4707C38.1738 47.4512 37.8288 47.4284 37.5488 47.4023C37.2689 47.3698 37.1126 47.3535 37.0801 47.3535C36.9499 47.334 36.8424 47.2754 36.7578 47.1777C36.6797 47.0801 36.6406 46.9661 36.6406 46.8359C36.6406 46.6732 36.6992 46.5495 36.8164 46.4648C36.9336 46.3737 37.0475 46.3281 37.1582 46.3281H37.2168C37.2233 46.3281 37.2982 46.3379 37.4414 46.3574C37.5846 46.3704 37.7702 46.39 37.998 46.416C38.2324 46.4355 38.4961 46.4551 38.7891 46.4746C39.082 46.4876 39.3848 46.4941 39.6973 46.4941C40.0098 46.4941 40.3158 46.4844 40.6152 46.4648C40.9147 46.4388 41.1882 46.3932 41.4355 46.3281H41.543C41.6927 46.3281 41.8164 46.3802 41.9141 46.4844C42.0117 46.5885 42.0605 46.7057 42.0605 46.8359V55.1758C43.0892 54.974 43.9714 54.6061 44.707 54.0723C45.4492 53.5319 46.0482 52.7669 46.5039 51.7773H46.2793C45.9147 51.7773 45.6185 51.7676 45.3906 51.748C45.1628 51.722 45.0326 51.709 45 51.709C44.8698 51.6895 44.7624 51.6309 44.6777 51.5332C44.5996 51.4355 44.5605 51.3216 44.5605 51.1914C44.5605 51.0286 44.6191 50.9049 44.7363 50.8203C44.8535 50.7357 44.9674 50.6934 45.0781 50.6934H45.1367C45.1497 50.6934 45.2637 50.7031 45.4785 50.7227C45.6934 50.7422 45.9603 50.752 46.2793 50.752C46.4616 50.752 46.6569 50.7454 46.8652 50.7324C47.0736 50.7194 47.2852 50.6999 47.5 50.6738C47.7148 50.6413 47.9232 50.599 48.125 50.5469C48.3333 50.4883 48.5319 50.4167 48.7207 50.332C48.7793 50.293 48.8444 50.2734 48.916 50.2734C49.0658 50.2734 49.1895 50.3288 49.2871 50.4395C49.3913 50.5436 49.4434 50.6608 49.4434 50.791C49.4434 50.8952 49.4173 50.9896 49.3652 51.0742C49.3132 51.1523 49.2383 51.2109 49.1406 51.25C48.9128 51.3607 48.6719 51.4518 48.418 51.5234C48.1641 51.5951 47.9036 51.6504 47.6367 51.6895C47.3958 52.3535 47.1029 52.9232 46.7578 53.3984C46.4193 53.8737 46.0612 54.2708 45.6836 54.5898C45.8659 55.1237 46.0579 55.6283 46.2598 56.1035C46.4616 56.5723 46.6634 56.9824 46.8652 57.334C47.0736 57.6855 47.2754 57.9655 47.4707 58.1738C47.6725 58.3757 47.8613 58.4766 48.0371 58.4766C48.1868 58.4766 48.3008 58.4212 48.3789 58.3105C48.457 58.1934 48.5091 58.0599 48.5352 57.9102C48.5677 57.7604 48.584 57.6074 48.584 57.4512C48.584 57.2949 48.584 57.1745 48.584 57.0898C48.584 56.888 48.5742 56.6927 48.5547 56.5039C48.5417 56.3151 48.5254 56.1491 48.5059 56.0059C48.4863 55.8626 48.4668 55.7487 48.4473 55.6641C48.4342 55.5794 48.4245 55.5371 48.418 55.5371V55.4102C48.418 55.2734 48.4668 55.153 48.5645 55.0488C48.6686 54.9447 48.7858 54.8926 48.916 54.8926C49.0397 54.8926 49.1471 54.9284 49.2383 55C49.3359 55.0716 49.3978 55.1693 49.4238 55.293C49.4303 55.3125 49.4434 55.3743 49.4629 55.4785C49.4824 55.5762 49.502 55.7031 49.5215 55.8594C49.5475 56.0156 49.5703 56.1979 49.5898 56.4062C49.6094 56.6081 49.6191 56.8229 49.6191 57.0508C49.6191 57.526 49.5638 57.972 49.4531 58.3887C49.3424 58.7988 49.1667 59.1569 48.9258 59.4629C48.6914 59.7624 48.3887 60 48.0176 60.1758C47.653 60.3451 47.2135 60.4297 46.6992 60.4297Z" fill="#0B7077"/>
<line x1="4.31372" y1="20.75" x2="50.6863" y2="20.75" stroke="#D2E6E4"/>
<path d="M50.6863 20.1875L4.31373 20.1875C4.31373 9.03825 13.352 0 24.5012 0H30.4988C41.648 0 50.6863 9.03825 50.6863 20.1875Z" fill="#FFC619"/>
<path d="M22.9019 12.6627L21.1372 10.9258L19.7549 12.2939L21.5098 14.0308L22.9019 12.6627ZM20.1961 18.1547H17.2549V20.0953H20.1961V18.1547ZM29.0196 8.5H27.0588V11.3624H29.0196V8.5ZM36.3235 12.2939L34.9412 10.9258L33.1863 12.6627L34.5686 14.0308L36.3235 12.2939ZM33.1765 25.5873L34.9314 27.3339L36.3137 25.9658L34.549 24.2289L33.1765 25.5873ZM35.8823 18.1547V20.0953H38.8235V18.1547H35.8823ZM28.0392 13.3031C24.7941 13.3031 22.1568 15.9132 22.1568 19.125C22.1568 22.3368 24.7941 24.9469 28.0392 24.9469C31.2843 24.9469 33.9216 22.3368 33.9216 19.125C33.9216 15.9132 31.2843 13.3031 28.0392 13.3031ZM27.0588 29.75H29.0196V26.8876H27.0588V29.75ZM19.7549 25.9561L21.1372 27.3242L22.8921 25.5776L21.5098 24.2095L19.7549 25.9561Z" fill="#FD661F"/>
<path d="M4.31372 21.25H50.6863C50.6863 32.3992 41.648 41.4375 30.4988 41.4375H24.5012C13.352 41.4375 4.31372 32.3992 4.31372 21.25Z" fill="#0B7077"/>
</svg>
