<svg width="40" height="32" viewBox="0 0 40 32" fill="none" xmlns="http://www.w3.org/2000/svg">
<path d="M4 32C2.9 32 1.95833 31.6083 1.175 30.825C0.391667 30.0417 0 29.1 0 28V4C0 2.9 0.391667 1.95833 1.175 1.175C1.95833 0.391667 2.9 0 4 0H36C37.1 0 38.0417 0.391667 38.825 1.175C39.6083 1.95833 40 2.9 40 4V28C40 29.1 39.6083 30.0417 38.825 30.825C38.0417 31.6083 37.1 32 36 32H4ZM8 26H32C32.5667 26 33.0417 25.8083 33.425 25.425C33.8083 25.0417 34 24.5667 34 24C34 23.4333 33.8083 22.9583 33.425 22.575C33.0417 22.1917 32.5667 22 32 22H8C7.43333 22 6.95833 22.1917 6.575 22.575C6.19167 22.9583 6 23.4333 6 24C6 24.5667 6.19167 25.0417 6.575 25.425C6.95833 25.8083 7.43333 26 8 26ZM8 18H32C32.5667 18 33.0417 17.8083 33.425 17.425C33.8083 17.0417 34 16.5667 34 16C34 15.4333 33.8083 14.9583 33.425 14.575C33.0417 14.1917 32.5667 14 32 14H8C7.43333 14 6.95833 14.1917 6.575 14.575C6.19167 14.9583 6 15.4333 6 16C6 16.5667 6.19167 17.0417 6.575 17.425C6.95833 17.8083 7.43333 18 8 18ZM8 10H24C24.5667 10 25.0417 9.80833 25.425 9.425C25.8083 9.04167 26 8.56667 26 8C26 7.43333 25.8083 6.95833 25.425 6.575C25.0417 6.19167 24.5667 6 24 6H8C7.43333 6 6.95833 6.19167 6.575 6.575C6.19167 6.95833 6 7.43333 6 8C6 8.56667 6.19167 9.04167 6.575 9.425C6.95833 9.80833 7.43333 10 8 10Z" fill="#555555"/>
</svg>
