<svg width="48" height="48" viewBox="0 0 48 48" fill="none" xmlns="http://www.w3.org/2000/svg">
<g clip-path="url(#clip0_548_1848)">
<path d="M32.48 15.52C30.14 13.18 27.08 12 24 12V24L15.52 32.48C20.2 37.16 27.8 37.16 32.5 32.48C37.18 27.8 37.18 20.2 32.48 15.52ZM24 4C12.96 4 4 12.96 4 24C4 35.04 12.96 44 24 44C35.04 44 44 35.04 44 24C44 12.96 35.04 4 24 4ZM24 40C15.16 40 8 32.84 8 24C8 15.16 15.16 8 24 8C32.84 8 40 15.16 40 24C40 32.84 32.84 40 24 40Z" fill="#0B7077"/>
</g>
<defs>
<clipPath id="clip0_548_1848">
<rect width="48" height="48" fill="white"/>
</clipPath>
</defs>
</svg>
