<svg width="20" height="20" viewBox="0 0 20 20" fill="none" xmlns="http://www.w3.org/2000/svg">
<path d="M8.925 13.3008C8.59167 13.5175 8.25 13.5342 7.9 13.3508C7.55 13.1675 7.375 12.8758 7.375 12.4758V7.12584C7.375 6.72584 7.55 6.43417 7.9 6.25084C8.25 6.06751 8.59167 6.08417 8.925 6.30084L13.075 8.95084C13.225 9.05084 13.3373 9.17584 13.412 9.32584C13.4873 9.47584 13.525 9.63417 13.525 9.80084C13.525 9.96751 13.4873 10.1258 13.412 10.2758C13.3373 10.4258 13.225 10.5508 13.075 10.6508L8.925 13.3008ZM7.725 19.5758C7.14167 19.4425 6.57933 19.2675 6.038 19.0508C5.496 18.8342 4.96667 18.5592 4.45 18.2258C4.18333 18.0592 4.03767 17.8258 4.013 17.5258C3.98767 17.2258 4.09167 16.9592 4.325 16.7258C4.49167 16.5592 4.704 16.4635 4.962 16.4388C5.22067 16.4135 5.45833 16.4675 5.675 16.6008C6.04167 16.8342 6.421 17.0298 6.813 17.1878C7.20433 17.3465 7.60833 17.4758 8.025 17.5758C8.25833 17.6425 8.45433 17.7718 8.613 17.9638C8.771 18.1552 8.85 18.3675 8.85 18.6008C8.85 18.9342 8.73767 19.1965 8.513 19.3878C8.28767 19.5798 8.025 19.6425 7.725 19.5758ZM2.9 15.3008C2.66667 15.5342 2.40433 15.6382 2.113 15.6128C1.821 15.5882 1.59167 15.4508 1.425 15.2008C1.09167 14.7175 0.812667 14.2052 0.588 13.6638C0.362667 13.1218 0.183333 12.5508 0.0500001 11.9508C-0.0333332 11.6508 0.0206667 11.3842 0.212 11.1508C0.404 10.9175 0.666667 10.8008 1 10.8008C1.23333 10.8008 1.45 10.8842 1.65 11.0508C1.85 11.2175 1.98333 11.4175 2.05 11.6508C2.15 12.0842 2.28333 12.4925 2.45 12.8758C2.61667 13.2592 2.80833 13.6342 3.025 14.0008C3.15833 14.2008 3.21233 14.4258 3.187 14.6758C3.16233 14.9258 3.06667 15.1342 2.9 15.3008ZM1.025 8.80084C0.691667 8.80084 0.425 8.68417 0.225 8.45084C0.025 8.21751 -0.0416667 7.95084 0.025 7.65084C0.158333 7.06751 0.341667 6.49651 0.575 5.93784C0.808333 5.37984 1.09167 4.85917 1.425 4.37584C1.59167 4.12584 1.821 3.99251 2.113 3.97584C2.40433 3.95917 2.66667 4.06751 2.9 4.30084C3.06667 4.46751 3.16233 4.67584 3.187 4.92584C3.21233 5.17584 3.15833 5.40084 3.025 5.60084C2.80833 5.95084 2.61667 6.32151 2.45 6.71284C2.28333 7.10484 2.15 7.51751 2.05 7.95084C1.98333 8.18417 1.85433 8.38417 1.663 8.55084C1.471 8.71751 1.25833 8.80084 1.025 8.80084ZM11.95 19.5508C11.65 19.6175 11.3917 19.5592 11.175 19.3758C10.9583 19.1925 10.85 18.9425 10.85 18.6258C10.85 18.3925 10.9293 18.1758 11.088 17.9758C11.246 17.7758 11.4417 17.6425 11.675 17.5758C13.4583 17.1092 14.925 16.1635 16.075 14.7388C17.225 13.3135 17.8 11.6675 17.8 9.80084C17.8 7.93417 17.225 6.27584 16.075 4.82584C14.925 3.37584 13.4583 2.43417 11.675 2.00084C11.4417 1.93417 11.246 1.80484 11.088 1.61284C10.9293 1.42151 10.85 1.20917 10.85 0.97584C10.85 0.659173 10.9627 0.40484 11.188 0.21284C11.4127 0.0215065 11.675 -0.0408269 11.975 0.0258398C14.2583 0.52584 16.1333 1.68417 17.6 3.50084C19.0667 5.31751 19.8 7.41751 19.8 9.80084C19.8 12.1675 19.0627 14.2508 17.588 16.0508C16.1127 17.8508 14.2333 19.0175 11.95 19.5508ZM5.6 3.02584C5.38333 3.15917 5.15433 3.20917 4.913 3.17584C4.671 3.14251 4.46667 3.04251 4.3 2.87584C4.06667 2.64251 3.96267 2.37584 3.988 2.07584C4.01267 1.77584 4.15833 1.54251 4.425 1.37584C4.94167 1.04251 5.475 0.767507 6.025 0.55084C6.575 0.334173 7.14167 0.159173 7.725 0.0258398C8.025 -0.0408269 8.28767 0.0215065 8.513 0.21284C8.73767 0.40484 8.85 0.659173 8.85 0.97584C8.85 1.20917 8.76667 1.42151 8.6 1.61284C8.43333 1.80484 8.23333 1.93417 8 2.00084C7.58333 2.10084 7.175 2.23817 6.775 2.41284C6.375 2.58817 5.98333 2.79251 5.6 3.02584Z" fill="#555555"/>
</svg>
